<svg width="1819" height="740" viewBox="0 0 1819 740" fill="none" xmlns="http://www.w3.org/2000/svg">
<path fill-rule="evenodd" clip-rule="evenodd" d="M290.839 571.935C299.219 561.108 292.082 542.78 278.426 541.799C224.406 537.915 208.322 497.365 259.012 478.295C301.028 462.488 360.1 443.724 424.739 433.744C481.309 425.01 534.027 424.244 577.77 423.756C626.896 423.207 731.554 412.997 778.815 399.574C798.351 394.026 820.409 389.184 845.086 385.374C923.125 373.325 993.797 370.743 1040.02 376.538L1039.51 374.462H1797.25L1780.72 396.942C1739.68 452.764 1667.9 476.647 1601.59 456.545L1390.59 392.577C1373.79 387.484 1356.33 384.896 1338.78 384.896C1315.99 384.896 1293.28 387.574 1271.11 392.876L1223.58 404.244L1164.66 419.4C1149.05 423.415 1135.04 432.121 1124.53 444.343L1123.48 445.565C1104.22 467.96 1069.63 462.69 1056.61 438.587C1044.37 444.629 1029.57 450.643 1012.69 456.446C1000.6 460.603 1004.46 485.137 1006.64 499V499C1006.75 499.739 1006.86 500.448 1006.97 501.121C1010.41 523.439 953.413 554.645 866.35 576.235C850.789 580.094 834.922 586.912 824.191 598.824C810.048 614.523 792.734 629.842 774.708 643.501C723.373 682.401 654.687 701.873 588.006 701.873C565.339 702.436 542.679 699.345 522.47 693.279C496.066 685.355 466.113 685.575 441.709 698.396C391.884 724.571 330.52 740.618 274.754 739.051C144.33 727.139 20.101 670.576 225.628 618.829C248.485 613.074 271.178 598.795 283.203 582.165C285.751 578.642 288.289 575.23 290.839 571.935ZM7.25947 635.252C34.6603 667.312 108.683 652.571 139.656 631.927C151.609 623.96 158.475 617.271 165.825 609.532C172.649 602.347 190.963 596.499 212.959 590.76C304.678 566.833 246.184 533.773 152.276 555.89C65.8087 576.255 -15.9623 604.909 3.8234 630.976C4.96729 632.483 6.10972 633.907 7.25947 635.252ZM1026.8 461.583C1022.16 456.688 1010.87 457.675 1009.05 462.069C1008.9 462.447 1008.76 462.832 1008.63 463.237C1005.5 472.927 1007.79 474.995 1021.18 469.601C1026.55 467.441 1029.74 464.687 1026.8 461.583ZM226.934 539.577C241.468 540.061 233.187 529.608 217.824 527.8C201.648 525.896 183.867 524.296 169.484 523.518C150.012 522.465 136.369 528.034 123.716 534.359C119.95 536.242 117.177 538.185 117.254 540.628C117.457 547.097 133.67 550.676 140.956 549.052C141.347 548.965 141.749 548.874 142.164 548.782C151.515 546.689 167.083 543.206 196.839 540.344C209.44 539.133 219.117 539.317 226.934 539.577ZM821.32 506.147C821.5 512.929 817.105 518.988 810.601 520.922L777.218 530.85C771.904 532.43 766.438 528.876 765.727 523.378L764.43 513.355C764.082 510.667 764.469 507.936 765.549 505.451L770.882 493.179C771.32 492.172 771.645 491.121 771.853 490.043L778.609 455.042C779.945 448.12 785.922 443.062 792.97 442.89L797.578 442.777C808.445 442.51 814.815 430.436 808.901 421.316C806.878 418.196 803.689 416.017 800.047 415.265L770.374 409.143C763.516 407.728 756.591 411.246 753.69 417.619L749.732 426.316C747.651 430.886 747.996 436.195 750.651 440.458L761.886 458.504C764.025 461.938 764.685 466.09 763.718 470.018L760.944 481.285C760.752 482.066 760.497 482.829 760.183 483.569L755.679 494.162C752.5 501.64 741.872 501.427 739.023 493.818C716.37 433.309 713.672 426.104 664.213 427.956C662.809 428.009 661.277 427.928 659.886 427.736C591.092 418.226 592.798 433.369 597.283 473.167C599.346 491.472 601.997 514.992 598.646 543.728C598.351 546.255 598.434 548.898 598.909 551.398C598.944 551.582 598.979 551.765 599.014 551.948L599.069 552.241L599.126 552.548C599.991 557.17 595.183 561.265 590.802 562.972L576.396 568.585C569.197 571.39 561.045 568.268 557.561 561.371L555.383 557.059C552.944 552.229 553.295 546.461 556.301 541.962L571.061 519.874C576.585 511.609 567.974 501.222 558.828 505.118L522.793 520.467C521.58 520.984 520.304 521.338 518.998 521.521L495.172 524.863C489.975 525.592 488.152 532.171 492.233 535.47L515.156 554.004C518.701 556.869 520.75 561.191 520.725 565.749L520.692 571.907C520.657 578.473 516.355 584.253 510.076 586.172L467.961 599.042C456.189 602.639 445.335 591.309 449.433 579.703L459.21 552.014L470.732 505.596C471.481 502.578 473.149 499.868 475.505 497.84L496.003 480.199C500.306 476.496 502.149 470.68 500.766 465.174L494.775 441.33C492.944 434.046 486.008 429.238 478.544 430.08L460.882 432.074C454.231 432.825 448.882 437.892 447.773 444.493L440.374 488.516C440.241 489.31 440.171 490.115 440.167 490.921L439.865 546.895C439.847 550.277 438.686 553.553 436.572 556.192L395.398 607.59C392.884 610.728 391.735 614.743 392.209 618.736L393.596 630.429C394.495 638.007 400.94 643.702 408.571 643.661L424.647 643.576C427.172 643.563 429.652 642.912 431.859 641.685L468.203 621.47C479.169 615.371 491.999 613.528 504.239 616.295L516.118 618.981C521.419 620.18 525.657 624.151 527.196 629.364L537.743 665.079C540.665 674.974 546.174 683.91 553.702 690.967L558.89 695.831C564.186 700.795 572.276 701.255 578.101 696.923L584.431 692.215C587.235 690.129 589.799 687.737 592.073 685.083L595.047 681.611C600.522 675.221 599.671 665.578 593.161 660.246L577.387 647.329C573.887 644.462 571.867 640.168 571.892 635.643L572.009 613.813C572.03 609.898 574.881 606.574 578.747 605.956C593.731 603.562 606.184 614.672 613.158 628.149C620.185 641.73 633.892 650.803 664.407 659.286C671.286 661.198 678.716 659.52 684.284 655.05C726.344 621.288 755.729 596.579 759.645 566.451C760.139 562.653 763.18 559.605 766.466 557.638L788.919 544.199C795.629 540.183 803.173 537.764 810.968 537.128L823.594 536.099C826.888 535.831 830.059 537.412 831.827 540.205C832.374 541.069 832.768 542.021 832.991 543.018L836.245 557.56C836.914 560.551 837.292 563.599 837.373 566.663L837.483 570.792C837.551 573.354 839.183 575.612 841.594 576.48L844.374 577.481C847.562 578.629 851.08 578.436 854.123 576.944C855.742 576.151 856.629 574.372 856.288 572.602L850.893 544.577C850.569 542.889 850.536 541.158 850.797 539.46L852.248 530.035C852.814 526.353 855.846 523.55 859.56 523.273L872.863 522.282C874.079 522.192 875.266 521.863 876.356 521.315L876.683 521.15C881.663 518.645 883.193 512.262 879.889 507.772C877.194 504.108 872.189 503.03 868.224 505.259L847.079 517.148C842.698 519.612 837.412 515.92 838.216 510.959L840.299 498.099C840.766 495.219 840.383 492.265 839.196 489.599L836.134 482.721C835.456 481.199 834.292 479.945 832.824 479.157L832.073 478.754C826.1 475.545 818.692 478.697 816.862 485.225C816.628 486.062 816.656 486.95 816.943 487.769L820.376 497.569C820.89 499.037 821.173 500.576 821.214 502.131L821.32 506.147ZM722.764 568.081C723.694 567.132 724.622 566.186 725.516 565.229C749.094 539.963 734.244 480.08 709.685 447.876C703.51 439.779 691.979 441.297 682.87 445.847C672.538 451.009 661.406 451.746 651.097 452.428C624.638 454.181 603.595 455.574 615.37 530.486C626.793 586.935 639.431 622.298 670.298 639.033C676.768 642.541 684.604 642.012 691.031 638.425C717.373 623.726 715.706 615.188 713.416 603.453C712.299 597.73 711.034 591.246 712.796 582.915C714.057 576.958 718.438 572.491 722.764 568.081ZM716.686 464.892C717.051 466.653 716.16 468.376 714.797 469.551L714.539 469.773C710.361 473.377 708.731 474.784 701.059 473.542C698.844 473.183 698.558 471.696 698.213 469.898C697.656 466.995 696.943 463.281 687.693 462.199C684.402 461.814 681.232 458.937 682.921 456.086C685.094 452.42 690.05 452.422 697.049 452.424L697.6 452.425C706.521 452.425 715.041 456.973 716.686 464.892ZM377.883 657.247C383.296 657.247 385.724 649.891 385.724 639.607C385.724 634.556 387.739 630.447 389.148 627.574C390.608 624.597 391.418 622.947 388.664 622.947C383.251 622.947 372.003 631.283 372.003 641.567C372.003 651.851 372.471 657.247 377.883 657.247ZM772.963 569.904L772.963 569.905C772.611 571.494 772.248 573.132 771.61 574.215C769.213 578.284 762.316 574.835 762.083 570.118C762.062 569.695 762.051 569.225 762.051 568.703C762.051 561.663 771.08 558.267 774.159 558.267C776.718 558.267 775.932 561.776 773.88 566.589C773.5 567.481 773.234 568.678 772.963 569.904ZM771.291 581.788C772.579 581.788 777.731 580.611 777.731 578.848C777.731 577.085 775.145 575.908 773.857 575.908C772.569 575.908 769.891 577.337 769.891 579.1C769.891 580.863 770.003 581.788 771.291 581.788Z" fill="#E9AC47"/>
<path d="M1131.91 259.063C1115.83 262.612 1099.04 260.949 1083.97 254.315C1048.97 238.908 1011.3 269.789 1019.54 307.13L1046.87 430.943C1055.12 468.285 1102.29 480.439 1127.55 451.73C1140.54 436.96 1157.91 426.712 1177.12 422.471L1307.6 393.669C1358.68 382.397 1410.77 404.352 1460.4 420.853C1462.47 421.54 1464.56 422.193 1466.68 422.81L1605.15 463.204C1726.52 498.608 1841.48 391.062 1814.23 267.605L1784.36 132.278C1757.11 8.8213 1607.56 -40.3424 1512.37 42.8619L1403.77 137.795C1402.45 138.941 1401.16 140.102 1399.9 141.275C1362.34 176.099 1324.77 216.494 1274.75 227.533L1131.91 259.063Z" fill="#F0F0F2"/>
<path d="M1391.31 393.975C1374.51 388.882 1357.05 386.294 1339.5 386.294C1316.71 386.294 1294 388.972 1271.83 394.274L1224.3 405.642L1165.38 420.797C1149.77 424.813 1135.76 433.518 1125.25 445.741L1124.2 446.963C1102.53 472.166 1061.43 462.331 1053.52 430.048L1040.23 375.86H1794.02C1795.66 375.86 1796.6 377.724 1795.63 379.045L1781.44 398.34C1740.4 454.162 1668.62 478.045 1602.31 457.943L1391.31 393.975Z" fill="#F1CB8B"/>
</svg>
