<svg fill="none" xmlns="http://www.w3.org/2000/svg" viewBox="0 0 64 64"><path d="M32 0C14.33 0 0 14.328 0 32c0 14.139 9.168 26.133 21.885 30.365 1.598.296 2.115-.696 2.115-1.538v-5.958c-8.901 1.936-10.755-3.776-10.755-3.776-1.456-3.698-3.554-4.682-3.554-4.682-2.904-1.987.221-1.944.221-1.944 3.213.224 4.904 3.298 4.904 3.298 2.853 4.891 7.485 3.478 9.312 2.659.285-2.067 1.115-3.48 2.032-4.277-7.107-.814-14.579-3.558-14.579-15.816 0-3.496 1.251-6.35 3.296-8.59-.33-.808-1.426-4.064.312-8.469 0 0 2.688-.859 8.803 3.28 2.552-.71 5.288-1.064 8.008-1.077 2.72.013 5.459.368 8.016 1.077 6.11-4.139 8.792-3.28 8.792-3.28 1.741 4.408.645 7.664.315 8.47 2.053 2.24 3.293 5.095 3.293 8.589 0 12.29-7.485 14.997-14.61 15.789 1.146.992 2.194 2.939 2.194 5.925v8.782c0 .85.512 1.85 2.136 1.536C54.843 58.125 64 46.133 64 32 64 14.328 49.672 0 32 0Z" fill="#F0F0F2"/></svg>