<svg width="400" height="400" viewBox="0 0 400 400" fill="none" xmlns="http://www.w3.org/2000/svg">
<rect width="400" height="400" rx="200" fill="#7C9885"/>
<path fill-rule="evenodd" clip-rule="evenodd" d="M229 133.385C229 127.745 230.796 122.252 234.127 117.701V117.701C241.866 107.132 234.317 92.25 221.217 92.25H177.783C164.683 92.25 157.134 107.132 164.873 117.701V117.701C168.854 123.14 171 129.704 171 136.444V182.22C171 200.136 159.809 215.942 150.625 231.326C150.243 231.966 149.87 232.617 149.507 233.279L125.77 276.619C104.966 314.605 132.453 361 175.763 361H223.237C266.547 361 294.034 314.605 273.23 276.619L249.493 233.279C249.206 232.756 248.913 232.239 248.614 231.729C239.738 216.595 229 201.043 229 183.498V133.385Z" fill="#F0F0F2"/>
<path d="M138.43 277.734C146.937 261.311 163.889 251 182.384 251H217.616C236.111 251 253.063 261.311 261.57 277.734V277.734C278.636 310.683 254.722 350 217.616 350H182.384C145.278 350 121.364 310.683 138.43 277.734V277.734Z" fill="#7C9885"/>
<circle cx="217.445" cy="222" r="16" fill="#7C9885"/>
<circle cx="236.445" cy="269" r="8" fill="#F0F0F2"/>
<circle cx="207.945" cy="71.5" r="5.5" fill="#F0F0F2"/>
<circle cx="192.445" cy="60" r="8" fill="#F0F0F2"/>
<circle cx="223.945" cy="281.5" r="3.5" fill="#F0F0F2"/>
<circle cx="213.445" cy="34" r="13" fill="#F0F0F2"/>
<path d="M213.96 220.46H224.07V224.24H213.96V220.46ZM214.32 229.1H225.75V233H209.49V212H225.36V215.9H214.32V229.1Z" fill="#F0F0F2"/>
</svg>
