<svg fill="none" xmlns="http://www.w3.org/2000/svg" viewBox="0 0 58 58"><rect width="58" height="58" rx="29" fill="#3F736E"/><path fill-rule="evenodd" clip-rule="evenodd" d="M24.153 13.19a.725.725 0 0 1 .085.34v13.054a.725.725 0 0 1-.084.338l-12.034 22.8a.725.725 0 0 0 .641 1.064H45.14c.546 0 .896-.58.641-1.063l-11.89-22.526a.724.724 0 0 1-.083-.338v-13.6c0-.119.03-.236.085-.341l.58-1.086a.725.725 0 0 0-.64-1.066h-9.764a.725.725 0 0 0-.64 1.066l.724 1.357Z" fill="#F0F0F2"/><path d="M21.797 34.757a.725.725 0 0 1 .644-.392h12.957c.271 0 .52.151.644.392l6.684 12.904a.725.725 0 0 1-.643 1.059H15.756a.725.725 0 0 1-.643-1.059l6.684-12.904Z" fill="#3F736E"/><circle cx="31.529" cy="31.03" r="2.32" fill="#3F736E"/><circle cx="34.429" cy="36.54" r="1.16" fill="#F0F0F2"/><circle cx="30.152" cy="9.207" r=".797" fill="#F0F0F2"/><circle cx="27.904" cy="7.54" r="1.16" fill="#F0F0F2"/><circle cx="32.617" cy="38.352" r=".507" fill="#F0F0F2"/><circle cx="30.95" cy="3.77" r="1.885" fill="#F0F0F2"/><path d="M30.478 32.42v-2.871h2.236v.579h-1.488v.582h1.183v.544h-1.183v.587h1.544v.579h-2.292Z" fill="#F0F0F2"/></svg>