<svg width="267" height="267" viewBox="0 0 267 267" fill="none" xmlns="http://www.w3.org/2000/svg">
<rect width="267" height="267" rx="133.5" fill="#3F736E"/>
<path fill-rule="evenodd" clip-rule="evenodd" d="M111.186 60.7175C111.443 61.2009 111.578 61.7403 111.578 62.2882V122.378C111.578 122.921 111.446 123.455 111.192 123.935L55.7929 228.897C54.6198 231.119 56.2313 233.792 58.7445 233.792H207.8C210.313 233.792 211.924 231.119 210.751 228.897L156.019 125.2C155.766 124.72 155.633 124.185 155.633 123.642V61.0372C155.633 60.4894 155.768 59.9499 156.026 59.4665L158.691 54.4702C159.877 52.247 158.266 49.562 155.746 49.562H110.798C108.279 49.562 106.668 52.247 107.853 54.4702L111.186 60.7175Z" fill="#F0F0F2"/>
<path d="M100.341 160C100.914 158.893 102.057 158.198 103.304 158.198H162.954C164.201 158.198 165.344 158.893 165.918 160L196.688 219.408C197.839 221.629 196.226 224.28 193.724 224.28H72.534C70.0321 224.28 68.4197 221.629 69.5704 219.408L100.341 160Z" fill="#3F736E"/>
<circle cx="145.144" cy="142.845" r="10.68" fill="#3F736E"/>
<circle cx="158.494" cy="168.21" r="5.34" fill="#F0F0F2"/>
<circle cx="138.803" cy="42.3861" r="3.67125" fill="#F0F0F2"/>
<circle cx="128.457" cy="34.7101" r="5.34" fill="#F0F0F2"/>
<circle cx="150.15" cy="176.554" r="2.33625" fill="#F0F0F2"/>
<circle cx="142.474" cy="17.3547" r="8.6775" fill="#F0F0F2"/>
<path d="M140.302 148.83V135.613H150.595V138.277H143.746V140.96H149.193V143.463H143.746V146.166H150.855V148.83H140.302Z" fill="#F0F0F2"/>
</svg>
