<svg fill="none" xmlns="http://www.w3.org/2000/svg" viewBox="0 0 64 64"><path d="M32 0C14.328 0 0 14.328 0 32s14.328 32 32 32 32-14.328 32-32S49.672 0 32 0Zm16.176 25.72c.488 10.773-7.547 22.784-21.77 22.784a21.67 21.67 0 0 1-11.74-3.443c4.065.48 8.12-.65 11.34-3.17-3.35-.062-6.18-2.278-7.158-5.32a7.683 7.683 0 0 0 3.461-.131c-3.682-.741-6.226-4.059-6.144-7.608a7.642 7.642 0 0 0 3.47.957c-3.411-2.28-4.376-6.784-2.371-10.226 3.776 4.634 9.421 7.682 15.787 8.002-1.118-4.789 2.517-9.405 7.464-9.405 2.2 0 4.192.93 5.589 2.419a15.28 15.28 0 0 0 4.864-1.859 7.69 7.69 0 0 1-3.368 4.237 15.276 15.276 0 0 0 4.397-1.208 15.373 15.373 0 0 1-3.821 3.971Z" fill="#F0F0F2"/></svg>