<svg fill="none" xmlns="http://www.w3.org/2000/svg" viewBox="0 0 64 63"><g filter="url(#a)"><rect x="3" y="3" width="58" height="58" rx="29" fill="#3F736E"/><path fill-rule="evenodd" clip-rule="evenodd" d="M27.153 16.19a.725.725 0 0 1 .085.34v13.054a.724.724 0 0 1-.084.338l-12.034 22.8a.725.725 0 0 0 .641 1.064H48.14c.546 0 .896-.58.641-1.063l-11.89-22.526a.725.725 0 0 1-.083-.338v-13.6c0-.119.03-.236.085-.341l.58-1.086a.725.725 0 0 0-.64-1.066h-9.764a.725.725 0 0 0-.64 1.066l.724 1.357Z" fill="#F0F0F2"/><path d="M24.797 37.757a.725.725 0 0 1 .644-.392h12.957c.271 0 .52.151.644.392l6.684 12.904a.725.725 0 0 1-.643 1.059H18.756a.725.725 0 0 1-.643-1.059l6.684-12.904Z" fill="#3F736E"/><circle cx="34.529" cy="34.03" r="2.32" fill="#3F736E"/><circle cx="37.429" cy="39.54" r="1.16" fill="#F0F0F2"/><circle cx="33.152" cy="12.207" r=".797" fill="#F0F0F2"/><circle cx="30.904" cy="10.54" r="1.16" fill="#F0F0F2"/><circle cx="35.617" cy="41.352" r=".507" fill="#F0F0F2"/><circle cx="33.95" cy="6.77" r="1.885" fill="#F0F0F2"/><path d="M33.478 35.42v-2.871h2.236v.578h-1.488v.583h1.183v.544h-1.183v.587h1.544v.579h-2.292Z" fill="#F0F0F2"/></g><defs><filter id="a" x=".828" y="-.041" width="62.345" height="62.345" filterUnits="userSpaceOnUse" color-interpolation-filters="sRGB"><feFlood flood-opacity="0" result="BackgroundImageFix"/><feColorMatrix in="SourceAlpha" values="0 0 0 0 0 0 0 0 0 0 0 0 0 0 0 0 0 0 127 0" result="hardAlpha"/><feOffset dy="-.869"/><feGaussianBlur stdDeviation="1.086"/><feComposite in2="hardAlpha" operator="out"/><feColorMatrix values="0 0 0 0 0 0 0 0 0 0 0 0 0 0 0 0 0 0 0.25 0"/><feBlend in2="BackgroundImageFix" result="effect1_dropShadow_11_217"/><feBlend in="SourceGraphic" in2="effect1_dropShadow_11_217" result="shape"/></filter></defs></svg>